<?xml version="1.0" standalone="no"?>
<!DOCTYPE svg PUBLIC "-//W3C//DTD SVG 20010904//EN"
 "http://www.w3.org/TR/2001/REC-SVG-20010904/DTD/svg10.dtd">
<svg version="1.0" xmlns="http://www.w3.org/2000/svg"
 width="400.000000pt" height="400.000000pt" viewBox="0 0 400.000000 400.000000"
 preserveAspectRatio="xMidYMid meet">
<metadata>
Created by potrace 1.11, written by Peter Selinger 2001-2013
</metadata>
<g transform="translate(0.000000,400.000000) scale(0.100000,-0.100000)"
fill="#000000" stroke="none">
<path d="M1942 3510 c-21 -26 -19 -5 -21 -233 l-1 -194 -795 0 -795 0 -65 -32
c-45 -23 -76 -46 -100 -78 -69 -90 -66 -33 -63 -1219 l3 -1069 23 -46 c29 -60
83 -113 146 -144 l51 -24 1670 0 c1628 0 1671 1 1720 19 61 24 128 88 158 150
l22 45 2 1082 c3 1054 2 1083 -17 1127 -38 91 -108 154 -194 177 -28 8 -282
12 -821 13 l-780 1 -5 207 c-5 192 -6 208 -25 222 -30 23 -92 20 -113 -4z
m-22 -697 c4 -84 9 -116 21 -128 35 -35 124 -17 134 28 3 12 6 65 8 117 l2 95
765 1 c421 0 778 -4 794 -8 40 -10 84 -54 92 -92 4 -17 7 -496 6 -1064 0 -990
-1 -1033 -19 -1064 -10 -18 -33 -41 -50 -51 -31 -17 -97 -18 -1678 -18 l-1645
0 -30 21 c-67 47 -63 -23 -63 1115 0 567 3 1044 7 1061 9 40 55 84 96 93 17 3
374 6 793 6 l762 0 5 -112z"/>
<path d="M1208 2685 c-2 -2 -23 -5 -48 -7 -63 -6 -150 -48 -205 -99 -107 -98
-150 -240 -118 -382 16 -73 51 -134 110 -192 154 -151 400 -149 552 5 211 215
120 570 -169 658 -34 10 -117 22 -122 17z m97 -175 c112 -42 173 -170 142
-293 -15 -59 -96 -139 -159 -156 -80 -23 -160 -5 -222 50 -105 92 -109 247 -9
345 66 65 163 86 248 54z"/>
<path d="M2301 2197 c-36 -9 -43 -18 -48 -66 -3 -27 1 -44 15 -61 l20 -25 518
0 c286 -1 531 3 545 7 57 19 61 126 6 144 -30 10 -1019 11 -1056 1z"/>
<path d="M1129 1796 c-2 -2 -27 -7 -55 -10 -61 -6 -157 -37 -228 -73 -211
-106 -382 -317 -436 -536 -26 -104 -34 -235 -17 -258 29 -39 33 -39 836 -39
697 0 781 2 795 16 33 33 38 55 31 138 -16 192 -86 350 -219 493 -127 137
-275 222 -451 258 -37 8 -250 17 -256 11z m311 -192 c228 -80 407 -284 448
-511 l9 -53 -673 0 c-370 0 -675 3 -677 8 -2 4 4 40 14 80 60 239 250 429 492
492 113 30 276 23 387 -16z"/>
<path d="M2272 1570 c-28 -26 -29 -79 -3 -111 l19 -24 524 -1 c552 -1 576 1
579 44 5 47 -1 75 -17 93 -16 18 -35 19 -549 19 -521 0 -532 0 -553 -20z"/>
</g>
</svg>
